<svg width="152" height="45" viewBox="0 0 152 45" fill="none" xmlns="http://www.w3.org/2000/svg">
<path d="M28.4297 30.8052C31.6683 31.0947 34.1762 33.1059 34.1762 35.5439C34.1762 35.6694 34.1695 35.7938 34.1565 35.9169C34.0394 36.4244 33.8704 36.9248 33.6561 37.4112C32.2301 40.6488 28.8019 43.2688 25.3736 43.2688H15.24H11.0829C5.54143 43.2688 0 37.7273 0 32.1859V30.7694V6.07296C0 3.03648 3.03648 0 6.07297 0H9.16708C12.2036 0 15.24 3.03648 15.24 6.07296V30.7694H15.2678L12.6815 33.3557C12.1744 33.8628 12.1744 34.8771 12.6815 35.3842L12.7574 35.4601L12.951 35.2665C15.1996 33.0179 20.6281 30.7694 23.808 30.7694L28.4297 30.8052Z" fill="#8A87FF"/>
<path d="M135.809 37.2885C135.864 37.052 135.934 36.8146 136.02 36.5772L136.079 36.4114L139.887 25.8473L134.686 36.1184L134.058 37.3581L133.396 38.6655C131.579 41.96 127.89 44.351 123.733 44.351C120.206 44.351 117.072 42.7344 115.093 40.2317C113.715 38.4884 112.897 36.3151 112.897 33.9587C112.897 31.6022 113.715 29.4289 115.093 27.6856C115.614 27.0274 116.213 26.4305 116.878 25.9082C118.742 24.4444 121.121 23.5663 123.721 23.5663L131.486 23.5663H135.694C135.705 23.4799 135.71 23.3918 135.71 23.3025C135.71 22.1314 134.761 21.182 133.59 21.182H124.481H118.206C117.737 21.182 117.268 21.0404 116.841 20.8001C115.853 20.2433 115.093 19.1563 115.093 18.0692V17.6059C115.093 13.3961 119.303 9.18634 123.513 9.18634H134.06C134.494 9.18634 134.923 9.19904 135.349 9.224C144.405 9.75532 151.548 15.8419 151.548 23.2722V37.9416C151.548 41.1463 148.343 44.351 145.138 44.351H141.481C137.602 44.351 134.957 40.9244 135.809 37.2885Z" fill="#8A87FF"/>
<path d="M135.81 25.6038V28.7514C135.81 30.4899 134.4 31.8991 132.662 31.8991C130.923 31.8991 129.514 30.4899 129.514 28.7514C129.514 27.013 130.923 25.6038 132.662 25.6038H135.81Z" fill="white"/>
<path d="M93.9712 31.9931C94.1248 31.9931 94.304 31.8416 94.3296 31.6902L97.5073 12.9186C97.9883 11.0524 100.396 9.18628 102.324 9.18628H108.817C111.129 9.18628 112.865 11.4257 112.287 13.6652L107.894 30.7103L106.318 36.825C105.449 40.1936 101.103 43.5621 97.6239 43.5621H97.6138H89.6086H89.5985C86.1199 43.5621 81.7729 40.1936 80.9047 36.825L79.3285 30.7103L74.9349 13.6652C74.3577 11.4257 76.0931 9.18628 78.4057 9.18628H84.8988C86.8259 9.18628 89.2341 11.0524 89.7151 12.9186L93.1534 31.6909C93.1811 31.842 93.3624 31.9931 93.5159 31.9931H93.9712Z" fill="#8A87FF"/>
<path d="M36.5887 30.6434C36.2006 29.2874 35.9941 27.8649 35.9941 26.3986C35.9941 17.106 44.2882 9.57288 54.5195 9.57288C64.7507 9.57288 73.0448 17.106 73.0448 26.3986C73.0448 27.8649 72.8383 29.2874 72.4502 30.6434C70.3791 37.881 63.1363 43.2244 54.5195 43.2244C45.9026 43.2244 38.6598 37.881 36.5887 30.6434Z" fill="#8A87FF"/>
<path d="M51.4463 30.6434V20.8104C51.4463 20.0747 52.1819 19.3391 52.9176 19.3391H56.121C56.8566 19.3391 57.5923 20.0747 57.5923 20.8104V30.6434V32.7269C57.5923 33.4625 56.8566 34.1982 56.121 34.1982H52.9176C52.1819 34.1982 51.4463 33.4625 51.4463 32.7269V30.6434Z" fill="white"/>
</svg>
